<mxfile host="Electron" modified="2025-01-08T13:52:44.671Z" agent="Mozilla/5.0 (Windows NT 10.0; Win64; x64) AppleWebKit/537.36 (KHTML, like Gecko) draw.io/21.3.7 Chrome/112.0.5615.204 Electron/24.5.0 Safari/537.36" etag="y7XNazYWGmRtWYa0x3EB" version="21.3.7" type="device">
  <diagram name="Page-1" id="lL29OSRMKdQOGpyc099_">
    <mxGraphModel dx="1434" dy="918" grid="1" gridSize="10" guides="1" tooltips="1" connect="1" arrows="1" fold="1" page="1" pageScale="1" pageWidth="827" pageHeight="1169" math="0" shadow="0">
      <root>
        <mxCell id="0" />
        <mxCell id="1" parent="0" />
        <mxCell id="UoCIDgLLl18yIN_vk2Q8-147" value="" style="rounded=0;whiteSpace=wrap;html=1;fillColor=#f5f5f5;fontColor=#333333;strokeColor=none;" parent="1" vertex="1">
          <mxGeometry x="80" y="20" width="700" height="880" as="geometry" />
        </mxCell>
        <mxCell id="UoCIDgLLl18yIN_vk2Q8-2" style="edgeStyle=orthogonalEdgeStyle;rounded=0;orthogonalLoop=1;jettySize=auto;html=1;entryX=0;entryY=0.5;entryDx=0;entryDy=0;" parent="1" source="UoCIDgLLl18yIN_vk2Q8-3" target="UoCIDgLLl18yIN_vk2Q8-6" edge="1">
          <mxGeometry relative="1" as="geometry">
            <Array as="points">
              <mxPoint x="239" y="180" />
            </Array>
          </mxGeometry>
        </mxCell>
        <mxCell id="UoCIDgLLl18yIN_vk2Q8-3" value="&lt;b&gt;Chatbot&lt;br&gt;Selector&lt;/b&gt;" style="rhombus;whiteSpace=wrap;html=1;fillColor=#dae8fc;strokeColor=#6c8ebf;" parent="1" vertex="1">
          <mxGeometry x="179" y="40" width="120" height="120" as="geometry" />
        </mxCell>
        <mxCell id="UoCIDgLLl18yIN_vk2Q8-4" style="edgeStyle=orthogonalEdgeStyle;rounded=0;orthogonalLoop=1;jettySize=auto;html=1;entryX=1;entryY=0.5;entryDx=0;entryDy=0;dashed=1;" parent="1" source="UoCIDgLLl18yIN_vk2Q8-6" target="UoCIDgLLl18yIN_vk2Q8-3" edge="1">
          <mxGeometry relative="1" as="geometry">
            <Array as="points">
              <mxPoint x="379" y="100" />
            </Array>
          </mxGeometry>
        </mxCell>
        <mxCell id="UoCIDgLLl18yIN_vk2Q8-35" style="edgeStyle=orthogonalEdgeStyle;rounded=0;orthogonalLoop=1;jettySize=auto;html=1;entryX=0;entryY=0.5;entryDx=0;entryDy=0;" parent="1" source="UoCIDgLLl18yIN_vk2Q8-6" target="UoCIDgLLl18yIN_vk2Q8-34" edge="1">
          <mxGeometry relative="1" as="geometry" />
        </mxCell>
        <mxCell id="UoCIDgLLl18yIN_vk2Q8-6" value="&lt;b&gt;Side Effects Identifier&lt;/b&gt;" style="rounded=0;whiteSpace=wrap;html=1;fillColor=#e1d5e7;strokeColor=#9673a6;" parent="1" vertex="1">
          <mxGeometry x="319" y="160" width="120" height="40" as="geometry" />
        </mxCell>
        <mxCell id="UoCIDgLLl18yIN_vk2Q8-7" value="&lt;font style=&quot;font-size: 10px;&quot;&gt;&lt;i&gt;Selected Chat&lt;/i&gt;&lt;/font&gt;" style="text;html=1;strokeColor=none;fillColor=none;align=center;verticalAlign=middle;whiteSpace=wrap;rounded=0;" parent="1" vertex="1">
          <mxGeometry x="240" y="171" width="70" height="34" as="geometry" />
        </mxCell>
        <mxCell id="UoCIDgLLl18yIN_vk2Q8-8" value="&lt;span style=&quot;font-size: 10px;&quot;&gt;&lt;i&gt;Select &lt;br&gt;Other Chat&lt;br&gt;&lt;/i&gt;&lt;/span&gt;" style="text;html=1;strokeColor=none;fillColor=none;align=center;verticalAlign=middle;whiteSpace=wrap;rounded=0;" parent="1" vertex="1">
          <mxGeometry x="310" y="100" width="70" height="34" as="geometry" />
        </mxCell>
        <mxCell id="UoCIDgLLl18yIN_vk2Q8-99" style="edgeStyle=orthogonalEdgeStyle;rounded=0;orthogonalLoop=1;jettySize=auto;html=1;entryX=1;entryY=0.5;entryDx=0;entryDy=0;" parent="1" source="UoCIDgLLl18yIN_vk2Q8-10" target="UoCIDgLLl18yIN_vk2Q8-12" edge="1">
          <mxGeometry relative="1" as="geometry">
            <Array as="points">
              <mxPoint x="579" y="260" />
            </Array>
          </mxGeometry>
        </mxCell>
        <mxCell id="UoCIDgLLl18yIN_vk2Q8-10" value="&lt;b&gt;SPARQL&amp;nbsp;WikiData&lt;br&gt;Medications&lt;/b&gt;" style="rounded=0;whiteSpace=wrap;html=1;fillColor=#e1d5e7;strokeColor=#9673a6;" parent="1" vertex="1">
          <mxGeometry x="519" y="180" width="120" height="40" as="geometry" />
        </mxCell>
        <mxCell id="UoCIDgLLl18yIN_vk2Q8-41" style="edgeStyle=orthogonalEdgeStyle;rounded=0;orthogonalLoop=1;jettySize=auto;html=1;entryX=1;entryY=0.5;entryDx=0;entryDy=0;" parent="1" source="UoCIDgLLl18yIN_vk2Q8-12" target="UoCIDgLLl18yIN_vk2Q8-14" edge="1">
          <mxGeometry relative="1" as="geometry" />
        </mxCell>
        <mxCell id="UoCIDgLLl18yIN_vk2Q8-12" value="&lt;b&gt;User Input [1]&lt;br&gt;&lt;/b&gt;" style="rounded=0;whiteSpace=wrap;html=1;fillColor=#e1d5e7;strokeColor=#9673a6;" parent="1" vertex="1">
          <mxGeometry x="319" y="240" width="120" height="40" as="geometry" />
        </mxCell>
        <mxCell id="UoCIDgLLl18yIN_vk2Q8-30" style="edgeStyle=orthogonalEdgeStyle;rounded=0;orthogonalLoop=1;jettySize=auto;html=1;entryX=0.5;entryY=0;entryDx=0;entryDy=0;" parent="1" source="UoCIDgLLl18yIN_vk2Q8-14" target="UoCIDgLLl18yIN_vk2Q8-23" edge="1">
          <mxGeometry relative="1" as="geometry" />
        </mxCell>
        <mxCell id="UoCIDgLLl18yIN_vk2Q8-14" value="&lt;b&gt;LLM Prompt&amp;nbsp;&lt;br&gt;&lt;/b&gt;&lt;font style=&quot;font-size: 10px;&quot;&gt;&lt;b&gt;Extract Current Medications&lt;/b&gt;&lt;/font&gt;" style="rounded=0;whiteSpace=wrap;html=1;fillColor=#e1d5e7;strokeColor=#9673a6;" parent="1" vertex="1">
          <mxGeometry x="100" y="240" width="140" height="40" as="geometry" />
        </mxCell>
        <mxCell id="UoCIDgLLl18yIN_vk2Q8-46" style="edgeStyle=orthogonalEdgeStyle;rounded=0;orthogonalLoop=1;jettySize=auto;html=1;entryX=0;entryY=0.5;entryDx=0;entryDy=0;" parent="1" source="UoCIDgLLl18yIN_vk2Q8-16" target="UoCIDgLLl18yIN_vk2Q8-21" edge="1">
          <mxGeometry relative="1" as="geometry" />
        </mxCell>
        <mxCell id="UoCIDgLLl18yIN_vk2Q8-16" value="&lt;b style=&quot;&quot;&gt;LLM Response&lt;br&gt;&lt;font style=&quot;font-size: 10px;&quot;&gt;Extracted Medications&lt;/font&gt;&lt;br&gt;&lt;/b&gt;" style="rounded=0;whiteSpace=wrap;html=1;fillColor=#e1d5e7;strokeColor=#9673a6;" parent="1" vertex="1">
          <mxGeometry x="319" y="319" width="120" height="40" as="geometry" />
        </mxCell>
        <mxCell id="UoCIDgLLl18yIN_vk2Q8-18" value="&lt;span style=&quot;font-size: 10px;&quot;&gt;&lt;i&gt;And&lt;/i&gt;&lt;/span&gt;" style="text;html=1;strokeColor=none;fillColor=none;align=center;verticalAlign=middle;whiteSpace=wrap;rounded=0;" parent="1" vertex="1">
          <mxGeometry x="520" y="146" width="70" height="34" as="geometry" />
        </mxCell>
        <mxCell id="UoCIDgLLl18yIN_vk2Q8-19" value="&lt;i style=&quot;border-color: var(--border-color); font-size: 10px;&quot;&gt;Forward&lt;/i&gt;" style="text;html=1;strokeColor=none;fillColor=none;align=center;verticalAlign=middle;whiteSpace=wrap;rounded=0;" parent="1" vertex="1">
          <mxGeometry x="100" y="280" width="70" height="34" as="geometry" />
        </mxCell>
        <mxCell id="UoCIDgLLl18yIN_vk2Q8-48" style="edgeStyle=orthogonalEdgeStyle;rounded=0;orthogonalLoop=1;jettySize=auto;html=1;entryX=0.5;entryY=0;entryDx=0;entryDy=0;" parent="1" source="UoCIDgLLl18yIN_vk2Q8-21" target="UoCIDgLLl18yIN_vk2Q8-47" edge="1">
          <mxGeometry relative="1" as="geometry" />
        </mxCell>
        <mxCell id="UoCIDgLLl18yIN_vk2Q8-21" value="&lt;b&gt;FuzzyWuzzy&lt;br&gt;&lt;/b&gt;" style="rounded=0;whiteSpace=wrap;html=1;fillColor=#e1d5e7;strokeColor=#9673a6;" parent="1" vertex="1">
          <mxGeometry x="519" y="319" width="120" height="40" as="geometry" />
        </mxCell>
        <mxCell id="UoCIDgLLl18yIN_vk2Q8-55" style="edgeStyle=orthogonalEdgeStyle;rounded=0;orthogonalLoop=1;jettySize=auto;html=1;entryX=0;entryY=0.5;entryDx=0;entryDy=0;" parent="1" source="UoCIDgLLl18yIN_vk2Q8-23" target="UoCIDgLLl18yIN_vk2Q8-16" edge="1">
          <mxGeometry relative="1" as="geometry" />
        </mxCell>
        <mxCell id="UoCIDgLLl18yIN_vk2Q8-23" value="&lt;b&gt;Gemini 2.0&lt;/b&gt;" style="ellipse;whiteSpace=wrap;html=1;aspect=fixed;fillColor=#e1d5e7;strokeColor=#9673a6;" parent="1" vertex="1">
          <mxGeometry x="135" y="304" width="70" height="70" as="geometry" />
        </mxCell>
        <mxCell id="UoCIDgLLl18yIN_vk2Q8-26" value="&lt;i style=&quot;border-color: var(--border-color); font-size: 10px;&quot;&gt;Forward&lt;/i&gt;" style="text;html=1;strokeColor=none;fillColor=none;align=center;verticalAlign=middle;whiteSpace=wrap;rounded=0;" parent="1" vertex="1">
          <mxGeometry x="439" y="311" width="70" height="34" as="geometry" />
        </mxCell>
        <mxCell id="UoCIDgLLl18yIN_vk2Q8-32" value="&lt;i style=&quot;border-color: var(--border-color); font-size: 10px;&quot;&gt;Forward&lt;/i&gt;" style="text;html=1;strokeColor=none;fillColor=none;align=center;verticalAlign=middle;whiteSpace=wrap;rounded=0;" parent="1" vertex="1">
          <mxGeometry x="249" y="230" width="70" height="34" as="geometry" />
        </mxCell>
        <mxCell id="UoCIDgLLl18yIN_vk2Q8-98" style="edgeStyle=orthogonalEdgeStyle;rounded=0;orthogonalLoop=1;jettySize=auto;html=1;entryX=0.5;entryY=0;entryDx=0;entryDy=0;" parent="1" source="UoCIDgLLl18yIN_vk2Q8-34" target="UoCIDgLLl18yIN_vk2Q8-10" edge="1">
          <mxGeometry relative="1" as="geometry" />
        </mxCell>
        <mxCell id="UoCIDgLLl18yIN_vk2Q8-34" value="&lt;b style=&quot;border-color: var(--border-color);&quot;&gt;Welcome Message&amp;nbsp;&lt;br style=&quot;border-color: var(--border-color);&quot;&gt;+ User Guidelines&lt;/b&gt;" style="rounded=0;whiteSpace=wrap;html=1;fillColor=#e1d5e7;strokeColor=#9673a6;" parent="1" vertex="1">
          <mxGeometry x="519" y="97" width="120" height="40" as="geometry" />
        </mxCell>
        <mxCell id="UoCIDgLLl18yIN_vk2Q8-37" value="&lt;span style=&quot;font-size: 10px;&quot;&gt;&lt;i&gt;Display&lt;/i&gt;&lt;/span&gt;" style="text;html=1;strokeColor=none;fillColor=none;align=center;verticalAlign=middle;whiteSpace=wrap;rounded=0;" parent="1" vertex="1">
          <mxGeometry x="460" y="89" width="70" height="34" as="geometry" />
        </mxCell>
        <mxCell id="UoCIDgLLl18yIN_vk2Q8-44" value="&lt;i style=&quot;border-color: var(--border-color); font-size: 10px;&quot;&gt;Forward&lt;/i&gt;" style="text;html=1;strokeColor=none;fillColor=none;align=center;verticalAlign=middle;whiteSpace=wrap;rounded=0;" parent="1" vertex="1">
          <mxGeometry x="229" y="311" width="70" height="34" as="geometry" />
        </mxCell>
        <mxCell id="UoCIDgLLl18yIN_vk2Q8-51" style="edgeStyle=orthogonalEdgeStyle;rounded=0;orthogonalLoop=1;jettySize=auto;html=1;entryX=1;entryY=0.5;entryDx=0;entryDy=0;" parent="1" source="UoCIDgLLl18yIN_vk2Q8-47" target="UoCIDgLLl18yIN_vk2Q8-50" edge="1">
          <mxGeometry relative="1" as="geometry" />
        </mxCell>
        <mxCell id="UoCIDgLLl18yIN_vk2Q8-47" value="&lt;b&gt;Display Matches&lt;br&gt;&lt;/b&gt;" style="rounded=0;whiteSpace=wrap;html=1;fillColor=#e1d5e7;strokeColor=#9673a6;" parent="1" vertex="1">
          <mxGeometry x="519" y="400" width="120" height="40" as="geometry" />
        </mxCell>
        <mxCell id="UoCIDgLLl18yIN_vk2Q8-49" value="&lt;i style=&quot;border-color: var(--border-color); font-size: 10px;&quot;&gt;Match Medicines&lt;/i&gt;" style="text;html=1;strokeColor=none;fillColor=none;align=center;verticalAlign=middle;whiteSpace=wrap;rounded=0;" parent="1" vertex="1">
          <mxGeometry x="509" y="361" width="70" height="34" as="geometry" />
        </mxCell>
        <mxCell id="UoCIDgLLl18yIN_vk2Q8-56" style="edgeStyle=orthogonalEdgeStyle;rounded=0;orthogonalLoop=1;jettySize=auto;html=1;entryX=1;entryY=0.5;entryDx=0;entryDy=0;" parent="1" source="UoCIDgLLl18yIN_vk2Q8-50" target="UoCIDgLLl18yIN_vk2Q8-52" edge="1">
          <mxGeometry relative="1" as="geometry" />
        </mxCell>
        <mxCell id="UoCIDgLLl18yIN_vk2Q8-50" value="&lt;b&gt;&lt;font style=&quot;font-size: 12px;&quot;&gt;Request Another Medicine for Interaction Analysis&lt;/font&gt;&lt;br&gt;&lt;/b&gt;" style="rounded=0;whiteSpace=wrap;html=1;fillColor=#e1d5e7;strokeColor=#9673a6;" parent="1" vertex="1">
          <mxGeometry x="320" y="390" width="120" height="60" as="geometry" />
        </mxCell>
        <mxCell id="UoCIDgLLl18yIN_vk2Q8-72" style="edgeStyle=orthogonalEdgeStyle;rounded=0;orthogonalLoop=1;jettySize=auto;html=1;entryX=0.5;entryY=0;entryDx=0;entryDy=0;" parent="1" source="UoCIDgLLl18yIN_vk2Q8-52" target="UoCIDgLLl18yIN_vk2Q8-67" edge="1">
          <mxGeometry relative="1" as="geometry" />
        </mxCell>
        <mxCell id="UoCIDgLLl18yIN_vk2Q8-52" value="&lt;b style=&quot;border-color: var(--border-color);&quot;&gt;User Input [2]&lt;/b&gt;&lt;b&gt;&lt;br&gt;&lt;/b&gt;" style="rounded=0;whiteSpace=wrap;html=1;fillColor=#e1d5e7;strokeColor=#9673a6;" parent="1" vertex="1">
          <mxGeometry x="120" y="400" width="120" height="40" as="geometry" />
        </mxCell>
        <mxCell id="UoCIDgLLl18yIN_vk2Q8-73" style="edgeStyle=orthogonalEdgeStyle;rounded=0;orthogonalLoop=1;jettySize=auto;html=1;entryX=0;entryY=0.5;entryDx=0;entryDy=0;" parent="1" source="UoCIDgLLl18yIN_vk2Q8-67" target="UoCIDgLLl18yIN_vk2Q8-70" edge="1">
          <mxGeometry relative="1" as="geometry" />
        </mxCell>
        <mxCell id="UoCIDgLLl18yIN_vk2Q8-67" value="&lt;b&gt;LLM Prompt&lt;/b&gt;&lt;br&gt;&lt;font style=&quot;font-size: 10px;&quot;&gt;&lt;b&gt;Extract Medication&lt;/b&gt;&lt;/font&gt;" style="rounded=0;whiteSpace=wrap;html=1;fillColor=#e1d5e7;strokeColor=#9673a6;" parent="1" vertex="1">
          <mxGeometry x="120" y="480" width="120" height="40" as="geometry" />
        </mxCell>
        <mxCell id="UoCIDgLLl18yIN_vk2Q8-75" style="edgeStyle=orthogonalEdgeStyle;rounded=0;orthogonalLoop=1;jettySize=auto;html=1;entryX=0.5;entryY=0;entryDx=0;entryDy=0;" parent="1" source="UoCIDgLLl18yIN_vk2Q8-68" target="UoCIDgLLl18yIN_vk2Q8-69" edge="1">
          <mxGeometry relative="1" as="geometry" />
        </mxCell>
        <mxCell id="UoCIDgLLl18yIN_vk2Q8-68" value="&lt;b style=&quot;&quot;&gt;LLM Response&lt;br&gt;&lt;font style=&quot;font-size: 10px;&quot;&gt;Extracted Medication&lt;/font&gt;&lt;br&gt;&lt;/b&gt;" style="rounded=0;whiteSpace=wrap;html=1;fillColor=#e1d5e7;strokeColor=#9673a6;" parent="1" vertex="1">
          <mxGeometry x="519" y="480" width="120" height="40" as="geometry" />
        </mxCell>
        <mxCell id="UoCIDgLLl18yIN_vk2Q8-76" style="edgeStyle=orthogonalEdgeStyle;rounded=0;orthogonalLoop=1;jettySize=auto;html=1;entryX=1;entryY=0.5;entryDx=0;entryDy=0;" parent="1" source="UoCIDgLLl18yIN_vk2Q8-69" target="UoCIDgLLl18yIN_vk2Q8-71" edge="1">
          <mxGeometry relative="1" as="geometry" />
        </mxCell>
        <mxCell id="UoCIDgLLl18yIN_vk2Q8-69" value="&lt;b&gt;FuzzyWuzzy&lt;br&gt;&lt;/b&gt;" style="rounded=0;whiteSpace=wrap;html=1;fillColor=#e1d5e7;strokeColor=#9673a6;" parent="1" vertex="1">
          <mxGeometry x="519" y="559" width="120" height="40" as="geometry" />
        </mxCell>
        <mxCell id="UoCIDgLLl18yIN_vk2Q8-74" style="edgeStyle=orthogonalEdgeStyle;rounded=0;orthogonalLoop=1;jettySize=auto;html=1;entryX=0;entryY=0.5;entryDx=0;entryDy=0;" parent="1" source="UoCIDgLLl18yIN_vk2Q8-70" target="UoCIDgLLl18yIN_vk2Q8-68" edge="1">
          <mxGeometry relative="1" as="geometry" />
        </mxCell>
        <mxCell id="UoCIDgLLl18yIN_vk2Q8-70" value="&lt;b&gt;Gemini 2.0&lt;/b&gt;" style="ellipse;whiteSpace=wrap;html=1;aspect=fixed;fillColor=#e1d5e7;strokeColor=#9673a6;" parent="1" vertex="1">
          <mxGeometry x="344" y="465" width="70" height="70" as="geometry" />
        </mxCell>
        <mxCell id="UoCIDgLLl18yIN_vk2Q8-78" style="edgeStyle=orthogonalEdgeStyle;rounded=0;orthogonalLoop=1;jettySize=auto;html=1;entryX=1;entryY=0.5;entryDx=0;entryDy=0;" parent="1" source="UoCIDgLLl18yIN_vk2Q8-71" target="UoCIDgLLl18yIN_vk2Q8-77" edge="1">
          <mxGeometry relative="1" as="geometry" />
        </mxCell>
        <mxCell id="UoCIDgLLl18yIN_vk2Q8-90" style="edgeStyle=orthogonalEdgeStyle;rounded=0;orthogonalLoop=1;jettySize=auto;html=1;entryX=0.665;entryY=-0.054;entryDx=0;entryDy=0;entryPerimeter=0;" parent="1" source="UoCIDgLLl18yIN_vk2Q8-71" target="UoCIDgLLl18yIN_vk2Q8-80" edge="1">
          <mxGeometry relative="1" as="geometry">
            <Array as="points">
              <mxPoint x="379" y="620" />
              <mxPoint x="200" y="620" />
            </Array>
          </mxGeometry>
        </mxCell>
        <mxCell id="UoCIDgLLl18yIN_vk2Q8-71" value="&lt;b&gt;Display Match&lt;br&gt;&lt;/b&gt;" style="rounded=0;whiteSpace=wrap;html=1;fillColor=#e1d5e7;strokeColor=#9673a6;" parent="1" vertex="1">
          <mxGeometry x="319" y="559" width="120" height="40" as="geometry" />
        </mxCell>
        <mxCell id="UoCIDgLLl18yIN_vk2Q8-84" style="edgeStyle=orthogonalEdgeStyle;rounded=0;orthogonalLoop=1;jettySize=auto;html=1;entryX=0.337;entryY=-0.068;entryDx=0;entryDy=0;entryPerimeter=0;" parent="1" source="UoCIDgLLl18yIN_vk2Q8-77" target="UoCIDgLLl18yIN_vk2Q8-80" edge="1">
          <mxGeometry relative="1" as="geometry">
            <Array as="points">
              <mxPoint x="160" y="620" />
            </Array>
          </mxGeometry>
        </mxCell>
        <mxCell id="UoCIDgLLl18yIN_vk2Q8-77" value="&lt;b&gt;SPARQL WikiData&lt;br&gt;for Side Effects&lt;br&gt;&lt;/b&gt;" style="rounded=0;whiteSpace=wrap;html=1;fillColor=#e1d5e7;strokeColor=#9673a6;" parent="1" vertex="1">
          <mxGeometry x="120" y="559" width="120" height="40" as="geometry" />
        </mxCell>
        <mxCell id="UoCIDgLLl18yIN_vk2Q8-86" style="edgeStyle=orthogonalEdgeStyle;rounded=0;orthogonalLoop=1;jettySize=auto;html=1;entryX=0;entryY=0.5;entryDx=0;entryDy=0;" parent="1" source="UoCIDgLLl18yIN_vk2Q8-80" target="UoCIDgLLl18yIN_vk2Q8-85" edge="1">
          <mxGeometry relative="1" as="geometry">
            <Array as="points">
              <mxPoint x="292" y="660" />
              <mxPoint x="292" y="675" />
            </Array>
          </mxGeometry>
        </mxCell>
        <mxCell id="UoCIDgLLl18yIN_vk2Q8-80" value="&lt;b&gt;LLM Side &lt;br&gt;Effects Prompt&lt;br&gt;&lt;/b&gt;" style="rounded=0;whiteSpace=wrap;html=1;fillColor=#e1d5e7;strokeColor=#9673a6;" parent="1" vertex="1">
          <mxGeometry x="120" y="640" width="120" height="40" as="geometry" />
        </mxCell>
        <mxCell id="UoCIDgLLl18yIN_vk2Q8-89" style="edgeStyle=orthogonalEdgeStyle;rounded=0;orthogonalLoop=1;jettySize=auto;html=1;entryX=0;entryY=0.5;entryDx=0;entryDy=0;" parent="1" source="UoCIDgLLl18yIN_vk2Q8-85" target="UoCIDgLLl18yIN_vk2Q8-88" edge="1">
          <mxGeometry relative="1" as="geometry" />
        </mxCell>
        <mxCell id="UoCIDgLLl18yIN_vk2Q8-85" value="&lt;b&gt;Gemini 2.0&lt;/b&gt;" style="ellipse;whiteSpace=wrap;html=1;aspect=fixed;fillColor=#e1d5e7;strokeColor=#9673a6;" parent="1" vertex="1">
          <mxGeometry x="344" y="640" width="70" height="70" as="geometry" />
        </mxCell>
        <mxCell id="UoCIDgLLl18yIN_vk2Q8-93" style="edgeStyle=orthogonalEdgeStyle;rounded=0;orthogonalLoop=1;jettySize=auto;html=1;entryX=0.5;entryY=0;entryDx=0;entryDy=0;" parent="1" source="UoCIDgLLl18yIN_vk2Q8-88" target="UoCIDgLLl18yIN_vk2Q8-92" edge="1">
          <mxGeometry relative="1" as="geometry" />
        </mxCell>
        <mxCell id="UoCIDgLLl18yIN_vk2Q8-88" value="&lt;b&gt;Display Potential Side Effects&lt;br&gt;&lt;/b&gt;" style="rounded=0;whiteSpace=wrap;html=1;fillColor=#e1d5e7;strokeColor=#9673a6;" parent="1" vertex="1">
          <mxGeometry x="519" y="640" width="120" height="40" as="geometry" />
        </mxCell>
        <mxCell id="UoCIDgLLl18yIN_vk2Q8-97" style="edgeStyle=orthogonalEdgeStyle;rounded=0;orthogonalLoop=1;jettySize=auto;html=1;entryX=0.5;entryY=0;entryDx=0;entryDy=0;" parent="1" source="UoCIDgLLl18yIN_vk2Q8-92" target="UoCIDgLLl18yIN_vk2Q8-95" edge="1">
          <mxGeometry relative="1" as="geometry" />
        </mxCell>
        <mxCell id="UoCIDgLLl18yIN_vk2Q8-100" style="edgeStyle=orthogonalEdgeStyle;rounded=0;orthogonalLoop=1;jettySize=auto;html=1;entryX=0.5;entryY=1;entryDx=0;entryDy=0;" parent="1" source="UoCIDgLLl18yIN_vk2Q8-92" target="UoCIDgLLl18yIN_vk2Q8-94" edge="1">
          <mxGeometry relative="1" as="geometry">
            <Array as="points">
              <mxPoint x="699" y="760" />
            </Array>
          </mxGeometry>
        </mxCell>
        <mxCell id="UoCIDgLLl18yIN_vk2Q8-92" value="&lt;b&gt;Display Buttons&lt;br&gt;&lt;/b&gt;" style="rounded=0;whiteSpace=wrap;html=1;fillColor=#e1d5e7;strokeColor=#9673a6;" parent="1" vertex="1">
          <mxGeometry x="519" y="740" width="120" height="40" as="geometry" />
        </mxCell>
        <mxCell id="UoCIDgLLl18yIN_vk2Q8-101" style="edgeStyle=orthogonalEdgeStyle;rounded=0;orthogonalLoop=1;jettySize=auto;html=1;entryX=1;entryY=0.5;entryDx=0;entryDy=0;" parent="1" source="UoCIDgLLl18yIN_vk2Q8-94" target="UoCIDgLLl18yIN_vk2Q8-12" edge="1">
          <mxGeometry relative="1" as="geometry" />
        </mxCell>
        <mxCell id="UoCIDgLLl18yIN_vk2Q8-94" value="&lt;b&gt;Query Again&lt;br&gt;&lt;/b&gt;" style="rounded=0;whiteSpace=wrap;html=1;fillColor=#e1d5e7;strokeColor=#9673a6;" parent="1" vertex="1">
          <mxGeometry x="639" y="240" width="120" height="40" as="geometry" />
        </mxCell>
        <mxCell id="UoCIDgLLl18yIN_vk2Q8-134" style="edgeStyle=orthogonalEdgeStyle;rounded=0;orthogonalLoop=1;jettySize=auto;html=1;entryX=1;entryY=0.5;entryDx=0;entryDy=0;" parent="1" source="UoCIDgLLl18yIN_vk2Q8-95" target="UoCIDgLLl18yIN_vk2Q8-128" edge="1">
          <mxGeometry relative="1" as="geometry" />
        </mxCell>
        <mxCell id="UoCIDgLLl18yIN_vk2Q8-95" value="&lt;b&gt;Ask for further details&lt;br&gt;&lt;/b&gt;" style="rounded=0;whiteSpace=wrap;html=1;fillColor=#e1d5e7;strokeColor=#9673a6;" parent="1" vertex="1">
          <mxGeometry x="519" y="845" width="120" height="40" as="geometry" />
        </mxCell>
        <mxCell id="UoCIDgLLl18yIN_vk2Q8-141" style="edgeStyle=orthogonalEdgeStyle;rounded=0;orthogonalLoop=1;jettySize=auto;html=1;entryX=0;entryY=0.5;entryDx=0;entryDy=0;" parent="1" source="UoCIDgLLl18yIN_vk2Q8-102" target="UoCIDgLLl18yIN_vk2Q8-104" edge="1">
          <mxGeometry relative="1" as="geometry">
            <Array as="points">
              <mxPoint x="239" y="760" />
            </Array>
          </mxGeometry>
        </mxCell>
        <mxCell id="UoCIDgLLl18yIN_vk2Q8-102" value="&lt;b&gt;Gemini 2.0&lt;/b&gt;" style="ellipse;whiteSpace=wrap;html=1;aspect=fixed;fillColor=#e1d5e7;strokeColor=#9673a6;" parent="1" vertex="1">
          <mxGeometry x="204" y="775" width="70" height="70" as="geometry" />
        </mxCell>
        <mxCell id="UoCIDgLLl18yIN_vk2Q8-133" style="edgeStyle=orthogonalEdgeStyle;rounded=0;orthogonalLoop=1;jettySize=auto;html=1;entryX=0;entryY=0.5;entryDx=0;entryDy=0;" parent="1" source="UoCIDgLLl18yIN_vk2Q8-104" target="UoCIDgLLl18yIN_vk2Q8-92" edge="1">
          <mxGeometry relative="1" as="geometry" />
        </mxCell>
        <mxCell id="UoCIDgLLl18yIN_vk2Q8-104" value="&lt;b&gt;Display Response&lt;br&gt;&lt;/b&gt;" style="rounded=0;whiteSpace=wrap;html=1;fillColor=#e1d5e7;strokeColor=#9673a6;" parent="1" vertex="1">
          <mxGeometry x="319" y="740" width="120" height="40" as="geometry" />
        </mxCell>
        <mxCell id="UoCIDgLLl18yIN_vk2Q8-109" value="&lt;span style=&quot;font-size: 10px;&quot;&gt;&lt;i&gt;Await&lt;/i&gt;&lt;/span&gt;" style="text;html=1;strokeColor=none;fillColor=none;align=center;verticalAlign=middle;whiteSpace=wrap;rounded=0;" parent="1" vertex="1">
          <mxGeometry x="450" y="230" width="70" height="34" as="geometry" />
        </mxCell>
        <mxCell id="UoCIDgLLl18yIN_vk2Q8-110" value="&lt;span style=&quot;font-size: 10px;&quot;&gt;&lt;i&gt;And&lt;/i&gt;&lt;/span&gt;" style="text;html=1;strokeColor=none;fillColor=none;align=center;verticalAlign=middle;whiteSpace=wrap;rounded=0;" parent="1" vertex="1">
          <mxGeometry x="444" y="390" width="70" height="34" as="geometry" />
        </mxCell>
        <mxCell id="UoCIDgLLl18yIN_vk2Q8-112" value="&lt;span style=&quot;font-size: 10px;&quot;&gt;&lt;i&gt;Await&lt;/i&gt;&lt;/span&gt;" style="text;html=1;strokeColor=none;fillColor=none;align=center;verticalAlign=middle;whiteSpace=wrap;rounded=0;" parent="1" vertex="1">
          <mxGeometry x="247" y="390" width="70" height="34" as="geometry" />
        </mxCell>
        <mxCell id="UoCIDgLLl18yIN_vk2Q8-113" value="&lt;i style=&quot;border-color: var(--border-color); font-size: 10px;&quot;&gt;Forward&lt;/i&gt;" style="text;html=1;strokeColor=none;fillColor=none;align=center;verticalAlign=middle;whiteSpace=wrap;rounded=0;" parent="1" vertex="1">
          <mxGeometry x="110" y="443" width="70" height="34" as="geometry" />
        </mxCell>
        <mxCell id="UoCIDgLLl18yIN_vk2Q8-114" value="&lt;i style=&quot;border-color: var(--border-color); font-size: 10px;&quot;&gt;Forward&lt;/i&gt;" style="text;html=1;strokeColor=none;fillColor=none;align=center;verticalAlign=middle;whiteSpace=wrap;rounded=0;" parent="1" vertex="1">
          <mxGeometry x="256" y="470" width="70" height="34" as="geometry" />
        </mxCell>
        <mxCell id="UoCIDgLLl18yIN_vk2Q8-115" value="&lt;i style=&quot;border-color: var(--border-color); font-size: 10px;&quot;&gt;Forward&lt;/i&gt;" style="text;html=1;strokeColor=none;fillColor=none;align=center;verticalAlign=middle;whiteSpace=wrap;rounded=0;" parent="1" vertex="1">
          <mxGeometry x="430" y="470" width="70" height="34" as="geometry" />
        </mxCell>
        <mxCell id="UoCIDgLLl18yIN_vk2Q8-116" value="&lt;i style=&quot;border-color: var(--border-color); font-size: 10px;&quot;&gt;Forward&lt;/i&gt;" style="text;html=1;strokeColor=none;fillColor=none;align=center;verticalAlign=middle;whiteSpace=wrap;rounded=0;" parent="1" vertex="1">
          <mxGeometry x="513" y="523" width="70" height="34" as="geometry" />
        </mxCell>
        <mxCell id="UoCIDgLLl18yIN_vk2Q8-117" value="&lt;i style=&quot;border-color: var(--border-color); font-size: 10px;&quot;&gt;Match Medicines&lt;/i&gt;" style="text;html=1;strokeColor=none;fillColor=none;align=center;verticalAlign=middle;whiteSpace=wrap;rounded=0;" parent="1" vertex="1">
          <mxGeometry x="449" y="541" width="70" height="34" as="geometry" />
        </mxCell>
        <mxCell id="UoCIDgLLl18yIN_vk2Q8-118" value="&lt;i style=&quot;border-color: var(--border-color); font-size: 10px;&quot;&gt;Forward&lt;/i&gt;" style="text;html=1;strokeColor=none;fillColor=none;align=center;verticalAlign=middle;whiteSpace=wrap;rounded=0;" parent="1" vertex="1">
          <mxGeometry x="247" y="550.5" width="70" height="34" as="geometry" />
        </mxCell>
        <mxCell id="UoCIDgLLl18yIN_vk2Q8-119" value="&lt;i style=&quot;border-color: var(--border-color); font-size: 10px;&quot;&gt;Input&lt;/i&gt;" style="text;html=1;strokeColor=none;fillColor=none;align=center;verticalAlign=middle;whiteSpace=wrap;rounded=0;" parent="1" vertex="1">
          <mxGeometry x="105" y="601" width="70" height="34" as="geometry" />
        </mxCell>
        <mxCell id="UoCIDgLLl18yIN_vk2Q8-120" value="&lt;i style=&quot;border-color: var(--border-color); font-size: 10px;&quot;&gt;Input&lt;/i&gt;" style="text;html=1;strokeColor=none;fillColor=none;align=center;verticalAlign=middle;whiteSpace=wrap;rounded=0;" parent="1" vertex="1">
          <mxGeometry x="326" y="592" width="70" height="34" as="geometry" />
        </mxCell>
        <mxCell id="UoCIDgLLl18yIN_vk2Q8-121" value="&lt;i style=&quot;border-color: var(--border-color); font-size: 10px;&quot;&gt;Forward&lt;/i&gt;" style="text;html=1;strokeColor=none;fillColor=none;align=center;verticalAlign=middle;whiteSpace=wrap;rounded=0;" parent="1" vertex="1">
          <mxGeometry x="280" y="670" width="70" height="34" as="geometry" />
        </mxCell>
        <mxCell id="UoCIDgLLl18yIN_vk2Q8-122" value="&lt;i style=&quot;border-color: var(--border-color); font-size: 10px;&quot;&gt;Forward&lt;/i&gt;" style="text;html=1;strokeColor=none;fillColor=none;align=center;verticalAlign=middle;whiteSpace=wrap;rounded=0;" parent="1" vertex="1">
          <mxGeometry x="408" y="670" width="70" height="34" as="geometry" />
        </mxCell>
        <mxCell id="UoCIDgLLl18yIN_vk2Q8-123" value="&lt;span style=&quot;font-size: 10px;&quot;&gt;&lt;i&gt;And&lt;/i&gt;&lt;/span&gt;" style="text;html=1;strokeColor=none;fillColor=none;align=center;verticalAlign=middle;whiteSpace=wrap;rounded=0;" parent="1" vertex="1">
          <mxGeometry x="519" y="692" width="70" height="34" as="geometry" />
        </mxCell>
        <mxCell id="UoCIDgLLl18yIN_vk2Q8-124" value="&lt;span style=&quot;font-size: 10px;&quot;&gt;&lt;i&gt;Choice A&lt;/i&gt;&lt;/span&gt;" style="text;html=1;strokeColor=none;fillColor=none;align=center;verticalAlign=middle;whiteSpace=wrap;rounded=0;" parent="1" vertex="1">
          <mxGeometry x="632" y="755" width="70" height="34" as="geometry" />
        </mxCell>
        <mxCell id="UoCIDgLLl18yIN_vk2Q8-125" value="&lt;span style=&quot;font-size: 10px;&quot;&gt;&lt;i&gt;Choice B&lt;/i&gt;&lt;/span&gt;" style="text;html=1;strokeColor=none;fillColor=none;align=center;verticalAlign=middle;whiteSpace=wrap;rounded=0;" parent="1" vertex="1">
          <mxGeometry x="575" y="816" width="70" height="34" as="geometry" />
        </mxCell>
        <mxCell id="UoCIDgLLl18yIN_vk2Q8-138" style="edgeStyle=orthogonalEdgeStyle;rounded=0;orthogonalLoop=1;jettySize=auto;html=1;entryX=0.5;entryY=1;entryDx=0;entryDy=0;" parent="1" source="UoCIDgLLl18yIN_vk2Q8-128" target="UoCIDgLLl18yIN_vk2Q8-102" edge="1">
          <mxGeometry relative="1" as="geometry" />
        </mxCell>
        <mxCell id="UoCIDgLLl18yIN_vk2Q8-128" value="&lt;b&gt;User Input [ALT]&lt;br&gt;&lt;/b&gt;" style="rounded=0;whiteSpace=wrap;html=1;fillColor=#e1d5e7;strokeColor=#9673a6;" parent="1" vertex="1">
          <mxGeometry x="320" y="845" width="120" height="40" as="geometry" />
        </mxCell>
        <mxCell id="UoCIDgLLl18yIN_vk2Q8-142" value="&lt;span style=&quot;font-size: 10px;&quot;&gt;&lt;i&gt;Await&lt;/i&gt;&lt;/span&gt;" style="text;html=1;strokeColor=none;fillColor=none;align=center;verticalAlign=middle;whiteSpace=wrap;rounded=0;" parent="1" vertex="1">
          <mxGeometry x="444" y="838" width="70" height="34" as="geometry" />
        </mxCell>
        <mxCell id="UoCIDgLLl18yIN_vk2Q8-143" value="&lt;i style=&quot;border-color: var(--border-color); font-size: 10px;&quot;&gt;Forward&lt;/i&gt;" style="text;html=1;strokeColor=none;fillColor=none;align=center;verticalAlign=middle;whiteSpace=wrap;rounded=0;" parent="1" vertex="1">
          <mxGeometry x="250" y="838" width="70" height="34" as="geometry" />
        </mxCell>
        <mxCell id="UoCIDgLLl18yIN_vk2Q8-144" value="&lt;i style=&quot;border-color: var(--border-color); font-size: 10px;&quot;&gt;Forward&lt;/i&gt;" style="text;html=1;strokeColor=none;fillColor=none;align=center;verticalAlign=middle;whiteSpace=wrap;rounded=0;" parent="1" vertex="1">
          <mxGeometry x="243" y="732" width="70" height="34" as="geometry" />
        </mxCell>
        <mxCell id="UoCIDgLLl18yIN_vk2Q8-146" value="&lt;span style=&quot;font-size: 10px;&quot;&gt;&lt;i&gt;And&lt;/i&gt;&lt;/span&gt;" style="text;html=1;strokeColor=none;fillColor=none;align=center;verticalAlign=middle;whiteSpace=wrap;rounded=0;" parent="1" vertex="1">
          <mxGeometry x="443" y="733" width="70" height="34" as="geometry" />
        </mxCell>
      </root>
    </mxGraphModel>
  </diagram>
</mxfile>
